<mxfile host="app.diagrams.net" modified="2021-12-30T06:30:24.287Z" agent="5.0 (Macintosh; Intel Mac OS X 10_15_7) AppleWebKit/537.36 (KHTML, like Gecko) Chrome/96.0.4664.110 Safari/537.36" etag="EvWnMYnjphlARGC_vI74" version="16.1.0" type="github">
  <diagram id="C5RBs43oDa-KdzZeNtuy" name="Page-1">
    <mxGraphModel dx="1426" dy="802" grid="1" gridSize="10" guides="1" tooltips="1" connect="1" arrows="1" fold="1" page="1" pageScale="1" pageWidth="827" pageHeight="1169" math="0" shadow="0">
      <root>
        <mxCell id="WIyWlLk6GJQsqaUBKTNV-0" />
        <mxCell id="WIyWlLk6GJQsqaUBKTNV-1" parent="WIyWlLk6GJQsqaUBKTNV-0" />
        <mxCell id="ZZyMtOjCsbchfc6uxfZn-2" value="create fapiao" style="swimlane;startSize=20;horizontal=1;childLayout=treeLayout;horizontalTree=0;resizable=0;containerType=tree;" vertex="1" parent="WIyWlLk6GJQsqaUBKTNV-1">
          <mxGeometry x="70" y="80" width="826" height="550" as="geometry" />
        </mxCell>
        <mxCell id="ZZyMtOjCsbchfc6uxfZn-3" value="http request" style="whiteSpace=wrap;html=1;" vertex="1" parent="ZZyMtOjCsbchfc6uxfZn-2">
          <mxGeometry x="363" y="40" width="100" height="40" as="geometry" />
        </mxCell>
        <mxCell id="ZZyMtOjCsbchfc6uxfZn-4" value="ocr" style="whiteSpace=wrap;html=1;" vertex="1" parent="ZZyMtOjCsbchfc6uxfZn-2">
          <mxGeometry x="20" y="130" width="100" height="40" as="geometry" />
        </mxCell>
        <mxCell id="ZZyMtOjCsbchfc6uxfZn-5" value="" style="edgeStyle=elbowEdgeStyle;elbow=vertical;html=1;rounded=0;" edge="1" parent="ZZyMtOjCsbchfc6uxfZn-2" source="ZZyMtOjCsbchfc6uxfZn-3" target="ZZyMtOjCsbchfc6uxfZn-4">
          <mxGeometry relative="1" as="geometry" />
        </mxCell>
        <mxCell id="ZZyMtOjCsbchfc6uxfZn-6" value="qrcode" style="whiteSpace=wrap;html=1;" vertex="1" parent="ZZyMtOjCsbchfc6uxfZn-2">
          <mxGeometry x="160" y="130" width="100" height="40" as="geometry" />
        </mxCell>
        <mxCell id="ZZyMtOjCsbchfc6uxfZn-7" value="" style="edgeStyle=elbowEdgeStyle;elbow=vertical;html=1;rounded=0;" edge="1" parent="ZZyMtOjCsbchfc6uxfZn-2" source="ZZyMtOjCsbchfc6uxfZn-3" target="ZZyMtOjCsbchfc6uxfZn-6">
          <mxGeometry relative="1" as="geometry" />
        </mxCell>
        <mxCell id="ZZyMtOjCsbchfc6uxfZn-8" value="" style="edgeStyle=elbowEdgeStyle;elbow=vertical;html=1;rounded=0;" edge="1" target="ZZyMtOjCsbchfc6uxfZn-9" source="ZZyMtOjCsbchfc6uxfZn-3" parent="ZZyMtOjCsbchfc6uxfZn-2">
          <mxGeometry relative="1" as="geometry">
            <mxPoint x="-490" y="160" as="sourcePoint" />
          </mxGeometry>
        </mxCell>
        <mxCell id="ZZyMtOjCsbchfc6uxfZn-9" value="wechat" style="whiteSpace=wrap;html=1;" vertex="1" parent="ZZyMtOjCsbchfc6uxfZn-2">
          <mxGeometry x="300" y="130" width="100" height="40" as="geometry" />
        </mxCell>
        <mxCell id="ZZyMtOjCsbchfc6uxfZn-10" value="" style="edgeStyle=elbowEdgeStyle;elbow=vertical;html=1;rounded=0;" edge="1" target="ZZyMtOjCsbchfc6uxfZn-11" source="ZZyMtOjCsbchfc6uxfZn-3" parent="ZZyMtOjCsbchfc6uxfZn-2">
          <mxGeometry relative="1" as="geometry">
            <mxPoint x="-350" y="160" as="sourcePoint" />
          </mxGeometry>
        </mxCell>
        <mxCell id="ZZyMtOjCsbchfc6uxfZn-11" value="file" style="whiteSpace=wrap;html=1;" vertex="1" parent="ZZyMtOjCsbchfc6uxfZn-2">
          <mxGeometry x="510" y="130" width="100" height="40" as="geometry" />
        </mxCell>
        <mxCell id="ZZyMtOjCsbchfc6uxfZn-12" value="" style="edgeStyle=elbowEdgeStyle;elbow=vertical;html=1;rounded=0;" edge="1" target="ZZyMtOjCsbchfc6uxfZn-13" source="ZZyMtOjCsbchfc6uxfZn-3" parent="ZZyMtOjCsbchfc6uxfZn-2">
          <mxGeometry relative="1" as="geometry">
            <mxPoint x="-140" y="160" as="sourcePoint" />
          </mxGeometry>
        </mxCell>
        <mxCell id="ZZyMtOjCsbchfc6uxfZn-13" value="401/501" style="whiteSpace=wrap;html=1;" vertex="1" parent="ZZyMtOjCsbchfc6uxfZn-2">
          <mxGeometry x="706" y="130" width="100" height="40" as="geometry" />
        </mxCell>
        <mxCell id="ZZyMtOjCsbchfc6uxfZn-14" value="" style="edgeStyle=elbowEdgeStyle;elbow=vertical;html=1;rounded=0;" edge="1" target="ZZyMtOjCsbchfc6uxfZn-15" source="ZZyMtOjCsbchfc6uxfZn-4" parent="ZZyMtOjCsbchfc6uxfZn-2">
          <mxGeometry relative="1" as="geometry">
            <mxPoint x="140" y="160" as="sourcePoint" />
          </mxGeometry>
        </mxCell>
        <mxCell id="ZZyMtOjCsbchfc6uxfZn-15" value="image upload s3" style="whiteSpace=wrap;html=1;" vertex="1" parent="ZZyMtOjCsbchfc6uxfZn-2">
          <mxGeometry x="20" y="220" width="100" height="40" as="geometry" />
        </mxCell>
        <mxCell id="ZZyMtOjCsbchfc6uxfZn-16" value="" style="edgeStyle=elbowEdgeStyle;elbow=vertical;html=1;rounded=0;" edge="1" target="ZZyMtOjCsbchfc6uxfZn-17" source="ZZyMtOjCsbchfc6uxfZn-6" parent="ZZyMtOjCsbchfc6uxfZn-2">
          <mxGeometry relative="1" as="geometry">
            <mxPoint x="140" y="160" as="sourcePoint" />
          </mxGeometry>
        </mxCell>
        <mxCell id="ZZyMtOjCsbchfc6uxfZn-17" value="parse qrcode info" style="whiteSpace=wrap;html=1;" vertex="1" parent="ZZyMtOjCsbchfc6uxfZn-2">
          <mxGeometry x="160" y="220" width="100" height="40" as="geometry" />
        </mxCell>
        <mxCell id="ZZyMtOjCsbchfc6uxfZn-18" value="" style="edgeStyle=elbowEdgeStyle;elbow=vertical;html=1;rounded=0;" edge="1" target="ZZyMtOjCsbchfc6uxfZn-19" source="ZZyMtOjCsbchfc6uxfZn-9" parent="ZZyMtOjCsbchfc6uxfZn-2">
          <mxGeometry relative="1" as="geometry">
            <mxPoint x="140" y="160" as="sourcePoint" />
          </mxGeometry>
        </mxCell>
        <mxCell id="ZZyMtOjCsbchfc6uxfZn-19" value="batch create fapiao" style="whiteSpace=wrap;html=1;" vertex="1" parent="ZZyMtOjCsbchfc6uxfZn-2">
          <mxGeometry x="300" y="220" width="100" height="40" as="geometry" />
        </mxCell>
        <mxCell id="ZZyMtOjCsbchfc6uxfZn-20" value="" style="edgeStyle=elbowEdgeStyle;elbow=vertical;html=1;rounded=0;" edge="1" target="ZZyMtOjCsbchfc6uxfZn-21" source="ZZyMtOjCsbchfc6uxfZn-15" parent="ZZyMtOjCsbchfc6uxfZn-2">
          <mxGeometry relative="1" as="geometry">
            <mxPoint x="-140" y="250" as="sourcePoint" />
          </mxGeometry>
        </mxCell>
        <mxCell id="ZZyMtOjCsbchfc6uxfZn-21" value="create fapiao group" style="whiteSpace=wrap;html=1;" vertex="1" parent="ZZyMtOjCsbchfc6uxfZn-2">
          <mxGeometry x="20" y="310" width="100" height="40" as="geometry" />
        </mxCell>
        <mxCell id="ZZyMtOjCsbchfc6uxfZn-22" value="" style="edgeStyle=elbowEdgeStyle;elbow=vertical;html=1;rounded=0;" edge="1" target="ZZyMtOjCsbchfc6uxfZn-23" source="ZZyMtOjCsbchfc6uxfZn-11" parent="ZZyMtOjCsbchfc6uxfZn-2">
          <mxGeometry relative="1" as="geometry">
            <mxPoint x="140" y="160" as="sourcePoint" />
          </mxGeometry>
        </mxCell>
        <mxCell id="ZZyMtOjCsbchfc6uxfZn-23" value="pdf/ofd" style="whiteSpace=wrap;html=1;" vertex="1" parent="ZZyMtOjCsbchfc6uxfZn-2">
          <mxGeometry x="440" y="220" width="100" height="40" as="geometry" />
        </mxCell>
        <mxCell id="ZZyMtOjCsbchfc6uxfZn-24" value="" style="edgeStyle=elbowEdgeStyle;elbow=vertical;html=1;rounded=0;" edge="1" target="ZZyMtOjCsbchfc6uxfZn-25" source="ZZyMtOjCsbchfc6uxfZn-11" parent="ZZyMtOjCsbchfc6uxfZn-2">
          <mxGeometry relative="1" as="geometry">
            <mxPoint x="280" y="250" as="sourcePoint" />
          </mxGeometry>
        </mxCell>
        <mxCell id="ZZyMtOjCsbchfc6uxfZn-25" value="501" style="whiteSpace=wrap;html=1;" vertex="1" parent="ZZyMtOjCsbchfc6uxfZn-2">
          <mxGeometry x="580" y="220" width="100" height="40" as="geometry" />
        </mxCell>
        <mxCell id="ZZyMtOjCsbchfc6uxfZn-26" value="" style="edgeStyle=elbowEdgeStyle;elbow=vertical;html=1;rounded=0;" edge="1" target="ZZyMtOjCsbchfc6uxfZn-27" source="ZZyMtOjCsbchfc6uxfZn-23" parent="ZZyMtOjCsbchfc6uxfZn-2">
          <mxGeometry relative="1" as="geometry">
            <mxPoint x="630" y="250" as="sourcePoint" />
          </mxGeometry>
        </mxCell>
        <mxCell id="ZZyMtOjCsbchfc6uxfZn-27" value="upload s3" style="whiteSpace=wrap;html=1;" vertex="1" parent="ZZyMtOjCsbchfc6uxfZn-2">
          <mxGeometry x="440" y="310" width="100" height="40" as="geometry" />
        </mxCell>
        <mxCell id="ZZyMtOjCsbchfc6uxfZn-28" value="" style="edgeStyle=elbowEdgeStyle;elbow=vertical;html=1;rounded=0;" edge="1" target="ZZyMtOjCsbchfc6uxfZn-29" source="ZZyMtOjCsbchfc6uxfZn-27" parent="ZZyMtOjCsbchfc6uxfZn-2">
          <mxGeometry relative="1" as="geometry">
            <mxPoint x="560" y="340" as="sourcePoint" />
          </mxGeometry>
        </mxCell>
        <mxCell id="ZZyMtOjCsbchfc6uxfZn-29" value="create fapiao" style="whiteSpace=wrap;html=1;" vertex="1" parent="ZZyMtOjCsbchfc6uxfZn-2">
          <mxGeometry x="440" y="400" width="100" height="40" as="geometry" />
        </mxCell>
        <mxCell id="ZZyMtOjCsbchfc6uxfZn-30" value="" style="edgeStyle=elbowEdgeStyle;elbow=vertical;html=1;rounded=0;" edge="1" target="ZZyMtOjCsbchfc6uxfZn-31" source="ZZyMtOjCsbchfc6uxfZn-17" parent="ZZyMtOjCsbchfc6uxfZn-2">
          <mxGeometry relative="1" as="geometry">
            <mxPoint x="280" y="250" as="sourcePoint" />
          </mxGeometry>
        </mxCell>
        <mxCell id="ZZyMtOjCsbchfc6uxfZn-31" value="create fapiao" style="whiteSpace=wrap;html=1;" vertex="1" parent="ZZyMtOjCsbchfc6uxfZn-2">
          <mxGeometry x="160" y="310" width="100" height="40" as="geometry" />
        </mxCell>
        <mxCell id="ZZyMtOjCsbchfc6uxfZn-34" value="" style="edgeStyle=elbowEdgeStyle;elbow=vertical;html=1;rounded=0;" edge="1" target="ZZyMtOjCsbchfc6uxfZn-35" source="ZZyMtOjCsbchfc6uxfZn-21" parent="ZZyMtOjCsbchfc6uxfZn-2">
          <mxGeometry relative="1" as="geometry">
            <mxPoint x="140" y="340" as="sourcePoint" />
          </mxGeometry>
        </mxCell>
        <mxCell id="ZZyMtOjCsbchfc6uxfZn-35" value="enqueue" style="whiteSpace=wrap;html=1;" vertex="1" parent="ZZyMtOjCsbchfc6uxfZn-2">
          <mxGeometry x="20" y="400" width="100" height="40" as="geometry" />
        </mxCell>
        <mxCell id="ZZyMtOjCsbchfc6uxfZn-36" value="" style="edgeStyle=elbowEdgeStyle;elbow=vertical;html=1;rounded=0;" edge="1" target="ZZyMtOjCsbchfc6uxfZn-37" source="ZZyMtOjCsbchfc6uxfZn-31" parent="ZZyMtOjCsbchfc6uxfZn-2">
          <mxGeometry relative="1" as="geometry">
            <mxPoint x="280" y="340" as="sourcePoint" />
          </mxGeometry>
        </mxCell>
        <mxCell id="ZZyMtOjCsbchfc6uxfZn-37" value="enqueue" style="whiteSpace=wrap;html=1;" vertex="1" parent="ZZyMtOjCsbchfc6uxfZn-2">
          <mxGeometry x="160" y="400" width="100" height="40" as="geometry" />
        </mxCell>
        <mxCell id="ZZyMtOjCsbchfc6uxfZn-38" value="" style="edgeStyle=elbowEdgeStyle;elbow=vertical;html=1;rounded=0;" edge="1" target="ZZyMtOjCsbchfc6uxfZn-39" source="ZZyMtOjCsbchfc6uxfZn-19" parent="ZZyMtOjCsbchfc6uxfZn-2">
          <mxGeometry relative="1" as="geometry">
            <mxPoint x="420" y="250" as="sourcePoint" />
          </mxGeometry>
        </mxCell>
        <mxCell id="ZZyMtOjCsbchfc6uxfZn-39" value="enqueue" style="whiteSpace=wrap;html=1;" vertex="1" parent="ZZyMtOjCsbchfc6uxfZn-2">
          <mxGeometry x="300" y="310" width="100" height="40" as="geometry" />
        </mxCell>
        <mxCell id="ZZyMtOjCsbchfc6uxfZn-40" value="" style="edgeStyle=elbowEdgeStyle;elbow=vertical;html=1;rounded=0;" edge="1" target="ZZyMtOjCsbchfc6uxfZn-41" source="ZZyMtOjCsbchfc6uxfZn-29" parent="ZZyMtOjCsbchfc6uxfZn-2">
          <mxGeometry relative="1" as="geometry">
            <mxPoint x="560" y="430" as="sourcePoint" />
          </mxGeometry>
        </mxCell>
        <mxCell id="ZZyMtOjCsbchfc6uxfZn-41" value="enqueue" style="whiteSpace=wrap;html=1;" vertex="1" parent="ZZyMtOjCsbchfc6uxfZn-2">
          <mxGeometry x="440" y="490" width="100" height="40" as="geometry" />
        </mxCell>
      </root>
    </mxGraphModel>
  </diagram>
</mxfile>
